<?xml version="1.0" encoding="utf-8"?>
<!-- Generator: Adobe Illustrator 16.0.0, SVG Export Plug-In . SVG Version: 6.00 Build 0)  -->
<!DOCTYPE svg PUBLIC "-//W3C//DTD SVG 1.1//EN" "http://www.w3.org/Graphics/SVG/1.1/DTD/svg11.dtd">
<svg version="1.1" id="Layer_1" xmlns="http://www.w3.org/2000/svg" xmlns:xlink="http://www.w3.org/1999/xlink" x="0px" y="0px"
	 width="1000px" height="800px" viewBox="0 0 1000 800" enable-background="new 0 0 1000 800" xml:space="preserve">
<rect x="837.693" y="648.108" fill="#FFFFFF" stroke="#000000" stroke-miterlimit="10" width="46.938" height="46.938"/>
<rect x="847.218" y="703.973" fill="#FFFFFF" stroke="#000000" stroke-miterlimit="10" width="46.938" height="46.938"/>
<rect x="790.755" y="703.973" fill="#FFFFFF" stroke="#000000" stroke-miterlimit="10" width="46.938" height="46.938"/>
<rect x="905.381" y="703.973" fill="#FFFFFF" stroke="#000000" stroke-miterlimit="10" width="46.938" height="46.938"/>
<g>
	<path d="M823.263,739.459c-0.902,0-1.62-0.253-2.153-0.759c-0.532-0.505-0.799-1.332-0.799-2.48
		c-0.957,1.148-2.07,1.976-3.342,2.48c-1.271,0.506-2.645,0.759-4.12,0.759c-0.957,0-1.859-0.103-2.706-0.308
		c-0.848-0.205-1.593-0.547-2.234-1.025c-0.643-0.478-1.148-1.093-1.518-1.845c-0.369-0.751-0.554-1.66-0.554-2.727
		c0-1.202,0.205-2.187,0.615-2.952c0.41-0.765,0.949-1.387,1.62-1.865c0.669-0.478,1.435-0.841,2.296-1.087
		c0.86-0.245,1.742-0.45,2.645-0.614c0.956-0.191,1.865-0.335,2.727-0.431c0.86-0.096,1.619-0.232,2.275-0.41
		c0.655-0.178,1.175-0.437,1.558-0.779c0.383-0.341,0.574-0.84,0.574-1.496c0-0.765-0.144-1.38-0.431-1.845s-0.656-0.82-1.107-1.066
		c-0.45-0.246-0.957-0.41-1.517-0.492c-0.561-0.082-1.114-0.123-1.66-0.123c-1.477,0-2.706,0.281-3.69,0.841
		c-0.983,0.561-1.517,1.619-1.599,3.178h-3.485c0.055-1.312,0.328-2.419,0.82-3.321s1.147-1.633,1.968-2.193
		c0.82-0.56,1.763-0.964,2.829-1.21c1.065-0.246,2.187-0.369,3.362-0.369c0.956,0,1.906,0.069,2.849,0.205
		c0.943,0.138,1.798,0.417,2.562,0.841c0.766,0.424,1.381,1.019,1.846,1.783c0.464,0.766,0.696,1.764,0.696,2.993v10.906
		c0,0.82,0.048,1.422,0.144,1.804c0.096,0.384,0.417,0.574,0.964,0.574c0.301,0,0.656-0.068,1.066-0.205v2.706
		C825.162,739.28,824.328,739.459,823.263,739.459z M818.384,728.778c-0.712,0.15-1.456,0.273-2.235,0.369
		c-0.778,0.096-1.564,0.205-2.357,0.328s-1.503,0.321-2.132,0.594c-0.629,0.274-1.142,0.663-1.537,1.169
		c-0.396,0.506-0.595,1.196-0.595,2.07c0,0.574,0.116,1.06,0.349,1.456c0.231,0.396,0.533,0.717,0.901,0.963
		c0.369,0.246,0.807,0.425,1.312,0.533c0.506,0.109,1.018,0.164,1.537,0.164c1.148,0,2.133-0.157,2.952-0.472
		c0.82-0.313,1.489-0.71,2.009-1.188s0.902-0.998,1.148-1.559c0.246-0.56,0.369-1.086,0.369-1.578v-3.567
		C819.668,728.389,819.094,728.628,818.384,728.778z"/>
</g>
<g>
	<path d="M867.813,735.272c0.328,0.533,0.759,0.957,1.291,1.271c0.533,0.314,1.135,0.54,1.805,0.677
		c0.669,0.137,1.359,0.205,2.07,0.205c0.546,0,1.12-0.041,1.722-0.123s1.154-0.231,1.661-0.451c0.505-0.218,0.922-0.539,1.25-0.963
		s0.492-0.964,0.492-1.62c0-0.901-0.342-1.585-1.025-2.05s-1.537-0.841-2.562-1.128c-1.024-0.286-2.139-0.546-3.341-0.778
		c-1.203-0.232-2.316-0.561-3.342-0.984c-1.025-0.423-1.88-1.018-2.562-1.783c-0.684-0.765-1.025-1.831-1.025-3.198
		c0-1.065,0.239-1.981,0.718-2.747c0.478-0.765,1.093-1.387,1.845-1.865c0.752-0.478,1.6-0.834,2.542-1.066
		c0.943-0.231,1.879-0.349,2.809-0.349c1.203,0,2.31,0.103,3.321,0.308c1.011,0.205,1.906,0.561,2.686,1.066s1.4,1.188,1.865,2.05
		s0.738,1.935,0.82,3.219h-3.485c-0.055-0.683-0.232-1.251-0.533-1.701c-0.301-0.451-0.684-0.813-1.147-1.087
		c-0.465-0.272-0.978-0.472-1.538-0.595s-1.127-0.185-1.701-0.185c-0.52,0-1.045,0.041-1.578,0.123s-1.019,0.226-1.456,0.431
		s-0.793,0.479-1.065,0.82c-0.273,0.342-0.41,0.786-0.41,1.332c0,0.602,0.211,1.101,0.636,1.497
		c0.423,0.396,0.963,0.725,1.619,0.983c0.656,0.261,1.394,0.479,2.214,0.656s1.641,0.362,2.46,0.554
		c0.875,0.191,1.729,0.424,2.562,0.696c0.834,0.274,1.571,0.636,2.214,1.087s1.162,1.019,1.559,1.701
		c0.396,0.684,0.594,1.531,0.594,2.542c0,1.285-0.266,2.352-0.799,3.198c-0.533,0.848-1.23,1.531-2.091,2.05
		c-0.861,0.52-1.832,0.882-2.911,1.087c-1.08,0.205-2.152,0.308-3.219,0.308c-1.176,0-2.296-0.123-3.362-0.369
		c-1.065-0.246-2.009-0.649-2.829-1.21c-0.819-0.56-1.476-1.298-1.968-2.214c-0.492-0.915-0.766-2.029-0.819-3.341h3.484
		C867.308,734.091,867.485,734.739,867.813,735.272z"/>
</g>
<g>
	<path d="M935.708,741.008v-2.87h-0.082c-0.574,1.176-1.476,2.023-2.706,2.542c-1.229,0.519-2.583,0.779-4.059,0.779
		c-1.641,0-3.069-0.301-4.285-0.902c-1.216-0.601-2.228-1.407-3.034-2.419c-0.806-1.011-1.414-2.187-1.824-3.526
		c-0.41-1.339-0.615-2.76-0.615-4.264c0-1.503,0.198-2.924,0.595-4.264c0.396-1.339,0.998-2.508,1.804-3.506
		c0.807-0.997,1.818-1.79,3.034-2.378c1.216-0.587,2.631-0.882,4.244-0.882c0.546,0,1.134,0.056,1.763,0.164
		c0.628,0.11,1.257,0.295,1.886,0.554c0.629,0.261,1.224,0.602,1.784,1.025c0.56,0.424,1.031,0.95,1.414,1.578h0.082v-10.906h3.485
		v29.274H935.708z M923.183,733.484c0.26,0.943,0.656,1.783,1.188,2.521c0.533,0.738,1.216,1.326,2.051,1.763
		c0.833,0.438,1.81,0.656,2.931,0.656c1.176,0,2.174-0.231,2.993-0.697c0.82-0.464,1.489-1.072,2.009-1.824
		c0.52-0.751,0.896-1.605,1.128-2.562c0.232-0.956,0.349-1.927,0.349-2.911c0-1.038-0.123-2.043-0.369-3.014
		c-0.246-0.97-0.636-1.824-1.169-2.562c-0.532-0.737-1.223-1.332-2.07-1.783s-1.872-0.677-3.074-0.677
		c-1.176,0-2.174,0.232-2.993,0.697c-0.82,0.465-1.477,1.08-1.969,1.845c-0.491,0.766-0.847,1.641-1.065,2.624
		c-0.219,0.984-0.328,1.996-0.328,3.034C922.793,731.578,922.922,732.541,923.183,733.484z"/>
</g>
<g>
	<path d="M865.443,685.144l-4.305-16.851h-0.082l-4.264,16.851h-3.772l-6.806-21.197h3.854l4.797,17.344h0.082l4.265-17.344h3.812
		l4.428,17.344h0.082l4.757-17.344h3.607l-6.765,21.197H865.443z"/>
</g>
<path fill="#53B848" stroke="#000000" stroke-miterlimit="10" d="M847.218,640.027h23.47c0,0,1.701-23.81-8.163-34.014
	c6.462-0.681,6.462-0.681,6.462-0.681l-19.065-5.204l-10.799,6.6l8.199-0.067c0,0,2.467,1.999,2,10.732
	S847.218,640.027,847.218,640.027z"/>
<path fill="#53B848" stroke="#000000" stroke-miterlimit="10" d="M854.781,757.063h23.47c0,0,1.701,18.962-8.163,27.089l6.815-0.096
	l-19.721,6.114l-7.527-6.568l5.229,0.034c0,0,2.467-1.592,2-8.548C856.418,768.134,854.781,757.063,854.781,757.063z"/>
<path fill="#53B848" stroke="#000000" stroke-miterlimit="10" d="M786.75,714l1,30.769c0,0-21.5-8.519-24.25-17.519l-0.422,2.884
	l-2.753-18.351L768.25,707l-1,3.734c0,0,0,2.016,6,3.016S786.75,714,786.75,714z"/>
<path fill="#53B848" stroke="#000000" stroke-miterlimit="10" d="M981,731l4.25-19.266L978,702v5c0,0-1,2.734-5.5,3.734
	s-16.25,1-16.25,1V743c0,0,21.75-6.117,24.75-15.559V731"/>
</svg>
